<?xml version="1.0" encoding="iso-8859-1"?>
<!-- Generator: Adobe Illustrator 19.0.0, SVG Export Plug-In . SVG Version: 6.00 Build 0)  -->
<svg version="1.1" id="Layer_1" xmlns="http://www.w3.org/2000/svg" xmlns:xlink="http://www.w3.org/1999/xlink" x="0px" y="0px"
	 viewBox="0 0 389.998 389.998" style="enable-background:new 0 0 389.998 389.998;" xml:space="preserve">
<path id="XMLID_350_" d="M374.998,54.999c-8.284,0-15,6.716-15,15v45h-30v-15.03c0-0.583-0.035-1.164-0.102-1.738
	c-0.429-11.359-5.055-21.977-13.136-30.06c-8.492-8.494-19.784-13.172-31.795-13.172c-11.511,0-22.021,4.353-29.982,11.493
	c-8.261-7.427-18.825-11.493-30.018-11.493c-11.511,0-22.02,4.353-29.981,11.492c-8.26-7.426-18.825-11.492-30.017-11.492
	c-11.511,0-22.02,4.353-29.982,11.493c-8.261-7.427-18.825-11.493-30.018-11.493c-24.794,0-44.965,20.173-44.965,44.97v15.03H15
	c-8.284,0-15,6.716-15,15c0,8.284,6.716,15,15,15h45.001L60,290.03c0,0.583,0.035,1.164,0.103,1.738
	c0.429,11.359,5.055,21.977,13.136,30.059c8.492,8.494,19.784,13.172,31.795,13.172c11.511,0,22.021-4.352,29.982-11.492
	c8.26,7.427,18.825,11.492,30.018,11.492c11.51,0,22.02-4.352,29.981-11.491c8.26,7.426,18.825,11.491,30.017,11.491
	c11.511,0,22.02-4.352,29.982-11.492c8.26,7.427,18.825,11.492,30.018,11.492c24.794,0,44.965-20.173,44.965-44.969l0.001-145.031
	h45.001c8.284,0,15-6.716,15-15v-60C389.998,61.715,383.282,54.999,374.998,54.999z M105.033,304.999
	c-3.997,0-7.754-1.557-10.58-4.383c-2.826-2.827-4.383-6.586-4.383-10.585c0-0.482-0.023-0.962-0.07-1.438l0.002-188.625
	c0-8.254,6.713-14.97,14.965-14.97c3.996,0,7.754,1.557,10.58,4.383c2.826,2.828,4.383,6.587,4.383,10.585
	c0,0.482,0.023,0.962,0.07,1.438l-0.002,188.625C119.998,298.284,113.285,304.999,105.033,304.999z M165.033,304.999
	c-3.997,0-7.754-1.557-10.58-4.383c-2.826-2.827-4.383-6.586-4.383-10.585c0-0.482-0.023-0.962-0.07-1.438l0.002-188.625
	c0-8.254,6.713-14.97,14.965-14.97c3.996,0,7.754,1.557,10.58,4.383c2.826,2.828,4.383,6.587,4.383,10.585
	c0,0.482,0.023,0.962,0.07,1.437l-0.002,188.626C179.998,298.284,173.285,304.999,165.033,304.999z M225.031,304.999
	c-3.997,0-7.754-1.557-10.58-4.383c-2.826-2.827-4.383-6.586-4.383-10.585c0-0.482-0.023-0.962-0.07-1.437L210,99.969
	c0-8.254,6.713-14.97,14.965-14.97c3.996,0,7.754,1.557,10.58,4.383c2.826,2.828,4.383,6.587,4.383,10.585
	c0,0.482,0.023,0.962,0.07,1.438l-0.002,188.625C239.996,298.284,233.283,304.999,225.031,304.999z M285.031,304.999
	c-3.997,0-7.754-1.557-10.58-4.383c-2.826-2.827-4.383-6.586-4.383-10.585c0-0.482-0.023-0.962-0.07-1.438L270,99.969
	c0-8.254,6.713-14.97,14.965-14.97c3.996,0,7.754,1.557,10.58,4.383c2.826,2.828,4.383,6.587,4.383,10.585
	c0,0.482,0.023,0.962,0.07,1.438l-0.002,188.625C299.996,298.284,293.283,304.999,285.031,304.999z"/>
<g>
</g>
<g>
</g>
<g>
</g>
<g>
</g>
<g>
</g>
<g>
</g>
<g>
</g>
<g>
</g>
<g>
</g>
<g>
</g>
<g>
</g>
<g>
</g>
<g>
</g>
<g>
</g>
<g>
</g>
</svg>
